<svg xmlns="http://www.w3.org/2000/svg" xmlns:xlink="http://www.w3.org/1999/xlink" version="1.1" baseProfile="full" viewBox="0 0 200 200" width="200" height="200">
<g fill="black">
<path d="M 159.3 168.9 L 151.1 164.1 L 143.3 159.0 L 135.8 153.7 L 128.8 148.0 L 122.1 142.0 L 115.8 135.6 L 110.0 128.8 L 106.0 123.1529411315918 L 106.0 181.1 L 94.0 187.1 L 94.0 130.0934426307678 L 92.9 131.5 L 86.2 138.7 L 79.0 145.6 L 71.3 151.9 L 63.1 157.7 L 54.3 163.1 L 45.1 167.9 L 35.3 172.2 L 25.0 175.9 L 14.1 178.9 L 13.5 177.3 L 23.5 172.4 L 33.0 167.4 L 41.9 162.2 L 50.3 156.7 L 58.1 150.9 L 65.4 144.7 L 72.1 138.3 L 78.3 131.5 L 83.9 124.4 L 85.33414630889892 122.3 L 18.8 122.3 L 18.8 118.3 L 94.0 118.3 L 94.0 97.2 L 106.0 99.2 L 109.0 101.2 L 106.0 103.0 L 106.0 118.3 L 159.1 118.3 L 169.1 108.3 L 181.1 118.3 L 181.1 122.3 L 108.54909086227417 122.3 L 113.0 125.9 L 119.8 131.3 L 126.7 136.4 L 133.8 141.3 L 141.1 146.0 L 148.7 150.3 L 156.5 154.5 L 164.6 158.3 L 173.0 161.9 L 181.6 165.2 L 188.2 167.8 L 176.7 177.4 L 167.8 173.3 Z M 46.0 103.0 L 34.0 109.0 L 34.0 46.9 L 46.0 52.9 L 74.0 52.9 L 74.0 28.2 L 17.0 28.2 L 17.0 24.2 L 161.0 24.2 L 171.0 14.2 L 183.0 24.2 L 183.0 28.2 L 126.0 28.2 L 126.0 52.9 L 154.0 52.9 L 160.0 47.9 L 171.0 56.9 L 166.0 60.9 L 166.0 100.0 L 154.0 106.0 L 154.0 96.0 L 46.0 96.0 Z M 46.0 56.9 L 46.0 92.0 L 74.0 92.0 L 74.0 56.9 Z M 86.0 56.9 L 86.0 92.0 L 114.0 92.0 L 114.0 56.9 Z M 126.0 56.9 L 126.0 92.0 L 154.0 92.0 L 154.0 56.9 Z M 86.0 28.2 L 86.0 52.9 L 114.0 52.9 L 114.0 28.2 Z " />
</g>
</svg>
